# xmcd CD database file
#
# Track frame offsets:
#	171
#	41013
#	64293
#	107431
#	158522
#	198657
#	227373
#
# Disc length: 3437 seconds
#
# Revision: 0
# Processed by: cddbd v1.5.2PL0 Copyright (c) Steve Scherf et al.
# Submitted via: CDex 1.51
#
DISCID=510d6b07
DTITLE=Ivo Neame - caught in the light of the day
DYEAR=2009
DGENRE=Jazz
TTITLE0=Caught in the Light of the Day
TTITLE1=Birdbrained
TTITLE2=Quixotic
TTITLE3=Enigmatic
TTITLE4=Passing Point
TTITLE5=Free At Last
TTITLE6=Pear-shaped
EXTD=YEAR: 2009
EXTT0=
EXTT1=
EXTT2=
EXTT3=
EXTT4=
EXTT5=
EXTT6=
PLAYORDER=
